# xmcd CD database file
# Copyright (C) 1993-1998 Ti Kan
#
# Track frame offsets:
#	150
#	24190
#	45902
#	60697
#	79200
#	98825
#	123752
#	141535
#	168777
#	188300
#
# Disc length: 3016 seconds
#
# Revision: 1
# Processed by: cddbd v1.4b41PL1 Copyright (c) Steve Scherf et al.
# Submitted via: CDValet v3.31 - Copyright (c) 1997 Greg Leichner
#
DISCID=700bc60a
DTITLE=Frankie Smith - Double Dutch Bus
DYEAR=1900
DGENRE=
TTITLE0=Double Dutch Bus
TTITLE1=Slang Thang
TTITLE2=Handbone
TTITLE3=Children of Tomorrow
TTITLE4=The Auction
TTITLE5=Double Dutch
TTITLE6=Teeny Bopper Lady
TTITLE7=Triple Dutch (instrumental)
TTITLE8=Double Dutch Bus (Radio Edit)
TTITLE9=Double Dutch Bus (12" Mix)
EXTD=
EXTT0=
EXTT1=
EXTT2=
EXTT3=
EXTT4=
EXTT5=
EXTT6=
EXTT7=
EXTT8=
EXTT9=
PLAYORDER=
